<svg width="350" height="350" viewBox="0 0 350 350" fill="none" xmlns="http://www.w3.org/2000/svg">
<rect width="350" height="350" fill="#1E1E1E"/>
<circle cx="175" cy="175" r="175" fill="#554664"/>
<g filter="url(#filter0_d_0_1)">
<path d="M131.697 225.792C126.236 225.792 121.286 224.469 116.849 221.824C112.412 219.093 108.87 215.04 106.225 209.664C103.58 204.288 102.257 197.632 102.257 189.696V168.704C102.257 160.939 103.665 154.368 106.481 148.992C109.382 143.616 113.35 139.563 118.385 136.832C123.42 134.016 129.222 132.608 135.793 132.608C142.62 132.608 148.465 134.059 153.329 136.96C158.193 139.861 161.905 143.787 164.465 148.736C167.025 153.6 168.305 159.061 168.305 165.12V166.656H151.409V165.12C151.409 159.744 150.001 155.691 147.185 152.96C144.454 150.144 140.572 148.736 135.537 148.736C130.844 148.736 126.918 150.315 123.761 153.472C120.689 156.629 119.153 162.133 119.153 169.984V188.928C119.153 202.752 124.785 209.664 136.049 209.664C141.084 209.664 144.881 208.299 147.441 205.568C150.086 202.837 151.409 199.253 151.409 194.816H129.905V178.688H168.305V224H152.945V214.016H150.641C149.617 217.344 147.654 220.16 144.753 222.464C141.852 224.683 137.5 225.792 131.697 225.792ZM177.816 224V134.4H207.512L212.632 201.728V214.784H215.704V201.728L220.824 134.4H250.52V224H235.16V164.096L236.696 143.616H233.624L226.968 224H201.624L194.712 143.616H191.64L193.176 164.096V224H177.816Z" fill="#D8CAD5"/>
</g>
<path d="M175 22C261.79 22 332 90.3567 332 174.5C332 258.643 261.79 327 175 327C88.21 327 18 258.643 18 174.5C18 90.3567 88.21 22 175 22Z" stroke="#D8CAD5" stroke-width="6"/>
<path d="M175 50C245.744 50 303 105.792 303 174.5C303 243.208 245.744 299 175 299C104.256 299 47 243.208 47 174.5C47 105.792 104.256 50 175 50Z" stroke="#D8CAD5" stroke-width="4"/>
<defs>
<filter id="filter0_d_0_1" x="98.257" y="132.608" width="156.263" height="101.184" filterUnits="userSpaceOnUse" color-interpolation-filters="sRGB">
<feFlood flood-opacity="0" result="BackgroundImageFix"/>
<feColorMatrix in="SourceAlpha" type="matrix" values="0 0 0 0 0 0 0 0 0 0 0 0 0 0 0 0 0 0 127 0" result="hardAlpha"/>
<feOffset dy="4"/>
<feGaussianBlur stdDeviation="2"/>
<feComposite in2="hardAlpha" operator="out"/>
<feColorMatrix type="matrix" values="0 0 0 0 0 0 0 0 0 0 0 0 0 0 0 0 0 0 0.25 0"/>
<feBlend mode="normal" in2="BackgroundImageFix" result="effect1_dropShadow_0_1"/>
<feBlend mode="normal" in="SourceGraphic" in2="effect1_dropShadow_0_1" result="shape"/>
</filter>
</defs>
</svg>
